<svg xmlns="http://www.w3.org/2000/svg" version="1.1" xmlns:xlink="http://www.w3.org/1999/xlink" xmlns:svgjs="http://svgjs.dev/svgjs" width="128" height="128" viewBox="0 0 128 128"><g transform="matrix(0.8046875,0,0,0.8046875,12.619327416025811,8.757686430921048)"><svg viewBox="0 0 88 95" data-background-color="#ffffff" preserveAspectRatio="xMidYMid meet" height="138" width="128" xmlns="http://www.w3.org/2000/svg" xmlns:xlink="http://www.w3.org/1999/xlink"><g id="tight-bounds" transform="matrix(1,0,0,1,-0.10194963699292714,-0.24049999999999727)"><svg viewBox="0 0 88.20389927398587 95.481" height="95.481" width="88.20389927398587"><g><svg viewBox="0 0 88.20389927398587 95.481" height="95.481" width="88.20389927398587"><g><svg viewBox="0 0 88.20389927398587 95.481" height="95.481" width="88.20389927398587"><g id="textblocktransform"><svg viewBox="0 0 88.20389927398587 95.481" height="95.481" width="88.20389927398587" id="textblock"><g><svg viewBox="0 0 88.20389927398587 95.481" height="95.481" width="88.20389927398587"><g><svg viewBox="0 0 88.20389927398587 95.481" height="95.481" width="88.20389927398587"><g><svg xmlns="http://www.w3.org/2000/svg" xmlns:xlink="http://www.w3.org/1999/xlink" version="1.1" x="0" y="0" viewBox="22.524459853392486 20.256783950309014 54.95154014660751 59.48521604969099" enable-background="new 0 0 100 100" xml:space="preserve" height="95.481" width="88.20389927398587" class="icon-icon-0" data-fill-palette-color="accent" id="icon-0"><path d="M71.945 36.043c-0.779-0.834-2.039-1.001-3.008-0.399-1.279 0.795-2.741 1.215-4.229 1.215-2.117 0-7.095-0.495-7.6-5.083-0.654-5.946-5.206-10.638-11.069-11.409-6.799-0.894-13.054 3.747-14.263 10.422l-6.499-2.637c-1.023-0.417-2.19 0.077-2.605 1.101-0.416 1.023 0.078 2.19 1.101 2.605l6.198 2.515-6.224 2.631c-1.017 0.43-1.494 1.604-1.063 2.621 0.323 0.763 1.063 1.222 1.843 1.222 0.259 0 0.523-0.051 0.778-0.158l7.118-3.009c0.962 2.481 2.685 4.641 4.966 6.124-0.65 2.018-0.979 4.105-0.979 6.229 0 9.051 5.893 16.738 14.039 19.464v7.856c0 1.319 1.07 2.389 2.389 2.389s2.389-1.07 2.389-2.389V70.48c0.567 0.047 1.137 0.087 1.716 0.087 0.913 0 1.806-0.081 2.688-0.197v6.983c0 1.319 1.07 2.389 2.389 2.389s2.389-1.07 2.389-2.389v-8.212c7.637-2.995 13.067-10.421 13.067-19.108C77.476 44.834 75.512 39.866 71.945 36.043zM63.096 59.636c-5.294 0-9.602-4.307-9.602-9.602 0-1.319-1.07-2.389-2.389-2.389s-2.389 1.07-2.389 2.389c0 7.929 6.451 14.38 14.38 14.38 0.095 0 0.187-0.012 0.282-0.014-1.968 0.885-4.142 1.389-6.436 1.389-8.688 0-15.755-7.068-15.755-15.755 0-2.194 0.459-4.339 1.365-6.377 0.262-0.588 0.275-1.257 0.037-1.855-0.239-0.598-0.708-1.075-1.303-1.322-3.347-1.39-5.355-4.866-4.884-8.454 0.531-4.04 3.993-6.99 7.962-6.99 0.348 0 0.699 0.023 1.053 0.069 3.675 0.483 6.53 3.441 6.943 7.194 0.624 5.673 5.471 9.339 12.349 9.339 1.679 0 3.335-0.333 4.88-0.973 2.016 2.708 3.109 5.975 3.109 9.369C72.697 55.329 68.39 59.636 63.096 59.636zM44.167 28.995c-1.64 0-2.97 1.33-2.97 2.97 0 1.64 1.33 2.97 2.97 2.97s2.97-1.33 2.97-2.97C47.137 30.324 45.807 28.995 44.167 28.995z" fill="#f98e54" data-fill-palette-color="accent"></path></svg></g></svg></g></svg></g></svg></g></svg></g></svg></g><defs></defs></svg><rect width="88.20389927398587" height="95.481" fill="none" stroke="none" visibility="hidden"></rect></g></svg></g></svg>