<svg xmlns="http://www.w3.org/2000/svg" version="1.1" xmlns:xlink="http://www.w3.org/1999/xlink" xmlns:svgjs="http://svgjs.dev/svgjs" width="2000" height="297" viewBox="0 0 2000 297"><g transform="matrix(1,0,0,1,-1.2121212121212466,-0.35069482842604316)"><svg viewBox="0 0 396 59" data-background-color="#ffffff" preserveAspectRatio="xMidYMid meet" height="297" width="2000" xmlns="http://www.w3.org/2000/svg" xmlns:xlink="http://www.w3.org/1999/xlink"><g id="tight-bounds" transform="matrix(1,0,0,1,0.2400000000000091,0.06966664941796807)"><svg viewBox="0 0 395.52 58.86066670116408" height="58.86066670116408" width="395.52"><g><svg viewBox="0 0 472.48703913186364 70.31478087318087" height="58.86066670116408" width="395.52"><g transform="matrix(1,0,0,1,76.96703913186363,9.717889397089397)"><svg viewBox="0 0 395.52 50.87900207900207" height="50.87900207900207" width="395.52"><g id="textblocktransform"><svg viewBox="0 0 395.52 50.87900207900207" height="50.87900207900207" width="395.52" id="textblock"><g><svg viewBox="0 0 395.52 50.87900207900207" height="50.87900207900207" width="395.52"><g transform="matrix(1,0,0,1,0,0)"><svg width="395.52" viewBox="1.98 -33.33 267.19 34.370000000000005" height="50.87900207900207" data-palette-color="#093d65"><path d="M35 1.04L29.24 1.04 26.94-1.74Q25.07-0.63 22.92 0 20.76 0.63 18.4 0.63L18.4 0.63Q15 0.63 12.03-0.64 9.06-1.91 6.81-4.13 4.55-6.35 3.26-9.31 1.98-12.26 1.98-15.63L1.98-15.63Q1.98-18.99 3.26-21.94 4.55-24.9 6.81-27.12 9.06-29.34 12.03-30.61 15-31.88 18.4-31.88L18.4-31.88Q21.84-31.88 24.81-30.61 27.78-29.34 30.03-27.12 32.29-24.9 33.56-21.94 34.83-18.99 34.83-15.63L34.83-15.63Q34.83-12.4 33.65-9.55 32.47-6.7 30.38-4.51L30.38-4.51 35 1.04ZM18.4-4.27L18.4-4.27Q21.25-4.27 23.68-5.63L23.68-5.63 15.35-15.63 21.15-15.63 27.08-8.51Q28.23-9.97 28.87-11.79 29.51-13.61 29.51-15.63L29.51-15.63Q29.51-18.78 28.04-21.35 26.56-23.92 24.05-25.45 21.53-26.98 18.4-26.98L18.4-26.98Q15.28-26.98 12.76-25.45 10.24-23.92 8.77-21.35 7.29-18.78 7.29-15.63L7.29-15.63Q7.29-12.5 8.77-9.91 10.24-7.33 12.76-5.8 15.28-4.27 18.4-4.27ZM47.64 0.56L47.64 0.56Q45.45 0.56 43.52-0.52 41.59-1.6 40.4-3.66 39.2-5.73 39.2-8.61L39.2-8.61 39.2-20.83 44.09-20.83 44.09-9.27Q44.09-7.15 45.36-5.54 46.63-3.92 48.92-3.92L48.92-3.92Q50.8-3.92 52.27-5.28 53.75-6.63 53.75-9.2L53.75-9.2 53.75-20.83 58.64-20.83 58.64 0 54.16 0 54.16-2.78Q53.05-1.18 51.33-0.31 49.62 0.56 47.64 0.56ZM73.43 0.42L73.43 0.42Q70.55 0.42 68.19-1.06 65.83-2.53 64.42-4.98 63.02-7.43 63.02-10.42L63.02-10.42Q63.02-13.4 64.42-15.87 65.83-18.33 68.19-19.79 70.55-21.25 73.43-21.25L73.43-21.25Q75.52-21.25 77.29-20.5 79.06-19.76 80.34-18.4L80.34-18.4 80.34-20.83 84.68-20.83 84.68 0 80.34 0 80.34-2.43Q79.06-1.11 77.29-0.35 75.52 0.42 73.43 0.42ZM74.02-3.96L74.02-3.96Q75.79-3.96 77.22-4.83 78.64-5.69 79.49-7.15 80.34-8.61 80.34-10.42L80.34-10.42Q80.34-12.22 79.49-13.68 78.64-15.14 77.22-16.02 75.79-16.91 74.02-16.91L74.02-16.91Q72.29-16.91 70.85-16.02 69.4-15.14 68.55-13.68 67.7-12.22 67.7-10.42L67.7-10.42Q67.7-8.65 68.55-7.17 69.4-5.69 70.83-4.83 72.25-3.96 74.02-3.96ZM100.2 0.56L100.2 0.56Q97.15 0.56 94.61-0.92 92.08-2.4 90.57-4.9 89.06-7.4 89.06-10.42L89.06-10.42Q89.06-13.47 90.57-15.95 92.08-18.44 94.61-19.91 97.15-21.39 100.2-21.39L100.2-21.39Q102.42-21.39 104.37-20.64 106.31-19.9 107.81-18.54L107.81-18.54 106.45-13.09Q105.58-14.69 103.99-15.8 102.39-16.91 100.31-16.91L100.31-16.91Q98.5-16.91 97.02-16.04 95.55-15.17 94.7-13.7 93.85-12.22 93.85-10.42L93.85-10.42Q93.85-8.65 94.7-7.17 95.55-5.69 97.02-4.81 98.5-3.92 100.31-3.92L100.31-3.92Q102.39-3.92 103.99-5.03 105.58-6.15 106.45-7.74L106.45-7.74 107.81-2.33Q106.31-0.97 104.37-0.21 102.42 0.56 100.2 0.56ZM131.31 0L125.37 0 116.52-11.46 123.81-20.83 129.23-20.83 122.07-11.88 131.31 0ZM116.55 0L111.66 0 111.66-33.33 116.55-33.33 116.55 0ZM144.61 0.56L144.61 0.56Q141.2 0.56 138.58-0.9 135.96-2.36 134.47-4.9 132.97-7.43 132.97-10.63L132.97-10.63Q132.97-13.68 134.41-16.11 135.86-18.54 138.3-19.97 140.75-21.39 143.74-21.39L143.74-21.39Q146.72-21.39 149.14-20 151.55-18.61 152.96-16.23 154.36-13.85 154.36-10.83L154.36-10.83 154.36-9.03 141.2-9.03Q140.33-9.03 139.47-9.11 138.6-9.2 137.73-9.34L137.73-9.34Q138.15-6.91 140.04-5.31 141.93-3.72 144.68-3.72L144.68-3.72Q146.65-3.72 148.3-4.57 149.95-5.42 150.96-6.77L150.96-6.77 152.14-1.91Q150.61-0.73 148.67-0.09 146.72 0.56 144.61 0.56ZM137.63-12.43L137.63-12.43Q139.43-12.78 141.2-12.78L141.2-12.78 146.52-12.78Q147.38-12.78 148.18-12.71 148.98-12.64 149.74-12.53L149.74-12.53Q149.26-14.69 147.59-16.01 145.93-17.33 143.7-17.33L143.7-17.33Q141.48-17.33 139.81-15.94 138.15-14.55 137.63-12.43ZM163.42 0L158.53 0 158.53-20.83 162.97-20.83 162.97-17.15Q164.08-18.96 165.82-20 167.55-21.04 169.95-21.04L169.95-21.04 171.06-16.49Q170.4-16.7 169.57-16.7L169.57-16.7Q166.79-16.7 165.11-14.93 163.42-13.16 163.42-9.86L163.42-9.86 163.42 0ZM200.33 0.63L200.33 0.63Q196.92 0.63 193.96-0.64 190.99-1.91 188.73-4.13 186.47-6.35 185.19-9.31 183.9-12.26 183.9-15.63L183.9-15.63Q183.9-18.99 185.19-21.94 186.47-24.9 188.73-27.12 190.99-29.34 193.96-30.61 196.92-31.88 200.33-31.88L200.33-31.88Q203.56-31.88 206.39-30.76 209.22-29.65 211.4-27.64L211.4-27.64 209.95-21.6Q208.49-23.96 206.02-25.47 203.56-26.98 200.43-26.98L200.43-26.98Q197.31-26.98 194.79-25.45 192.27-23.92 190.8-21.35 189.32-18.78 189.32-15.63L189.32-15.63Q189.32-12.5 190.8-9.91 192.27-7.33 194.79-5.8 197.31-4.27 200.43-4.27L200.43-4.27Q203.56-4.27 206.02-5.8 208.49-7.33 209.95-9.65L209.95-9.65 211.4-3.61Q209.18-1.67 206.37-0.52 203.56 0.63 200.33 0.63ZM224.63 0.42L224.63 0.42Q221.75 0.42 219.39-1.06 217.03-2.53 215.62-4.98 214.21-7.43 214.21-10.42L214.21-10.42Q214.21-13.4 215.62-15.87 217.03-18.33 219.39-19.79 221.75-21.25 224.63-21.25L224.63-21.25Q226.71-21.25 228.48-20.5 230.26-19.76 231.54-18.4L231.54-18.4 231.54-20.83 235.88-20.83 235.88 0 231.54 0 231.54-2.43Q230.26-1.11 228.48-0.35 226.71 0.42 224.63 0.42ZM225.22-3.96L225.22-3.96Q226.99-3.96 228.42-4.83 229.84-5.69 230.69-7.15 231.54-8.61 231.54-10.42L231.54-10.42Q231.54-12.22 230.69-13.68 229.84-15.14 228.42-16.02 226.99-16.91 225.22-16.91L225.22-16.91Q223.48-16.91 222.04-16.02 220.6-15.14 219.75-13.68 218.9-12.22 218.9-10.42L218.9-10.42Q218.9-8.65 219.75-7.17 220.6-5.69 222.03-4.83 223.45-3.96 225.22-3.96ZM246.4 0L241.5 0 241.5-20.83 245.95-20.83 245.95-17.15Q247.06-18.96 248.79-20 250.53-21.04 252.93-21.04L252.93-21.04 254.04-16.49Q253.38-16.7 252.54-16.7L252.54-16.7Q249.77-16.7 248.08-14.93 246.4-13.16 246.4-9.86L246.4-9.86 246.4 0ZM264.63 0L259.73 0 259.73-16.88 255.42-16.88 255.42-20.83 259.83-20.83 259.83-27.78 264.52-27.78 264.52-20.83 269.17-20.83 269.17-16.88 264.63-16.88 264.63 0Z" opacity="1" transform="matrix(1,0,0,1,0,0)" fill="#093d65" class="wordmark-text-0" data-fill-palette-color="primary" id="text-0"></path></svg></g></svg></g></svg></g></svg></g><g><svg viewBox="0 0 64.95572783706113 70.31478087318087" height="70.31478087318087" width="64.95572783706113"><g><svg xmlns="http://www.w3.org/2000/svg" xmlns:xlink="http://www.w3.org/1999/xlink" version="1.1" x="0" y="0" viewBox="22.524459853392486 20.256783950309014 54.95154014660751 59.48521604969099" enable-background="new 0 0 100 100" xml:space="preserve" height="70.31478087318087" width="64.95572783706113" class="icon-icon-0" data-fill-palette-color="accent" id="icon-0"><path d="M71.945 36.043c-0.779-0.834-2.039-1.001-3.008-0.399-1.279 0.795-2.741 1.215-4.229 1.215-2.117 0-7.095-0.495-7.6-5.083-0.654-5.946-5.206-10.638-11.069-11.409-6.799-0.894-13.054 3.747-14.263 10.422l-6.499-2.637c-1.023-0.417-2.19 0.077-2.605 1.101-0.416 1.023 0.078 2.19 1.101 2.605l6.198 2.515-6.224 2.631c-1.017 0.43-1.494 1.604-1.063 2.621 0.323 0.763 1.063 1.222 1.843 1.222 0.259 0 0.523-0.051 0.778-0.158l7.118-3.009c0.962 2.481 2.685 4.641 4.966 6.124-0.65 2.018-0.979 4.105-0.979 6.229 0 9.051 5.893 16.738 14.039 19.464v7.856c0 1.319 1.07 2.389 2.389 2.389s2.389-1.07 2.389-2.389V70.48c0.567 0.047 1.137 0.087 1.716 0.087 0.913 0 1.806-0.081 2.688-0.197v6.983c0 1.319 1.07 2.389 2.389 2.389s2.389-1.07 2.389-2.389v-8.212c7.637-2.995 13.067-10.421 13.067-19.108C77.476 44.834 75.512 39.866 71.945 36.043zM63.096 59.636c-5.294 0-9.602-4.307-9.602-9.602 0-1.319-1.07-2.389-2.389-2.389s-2.389 1.07-2.389 2.389c0 7.929 6.451 14.38 14.38 14.38 0.095 0 0.187-0.012 0.282-0.014-1.968 0.885-4.142 1.389-6.436 1.389-8.688 0-15.755-7.068-15.755-15.755 0-2.194 0.459-4.339 1.365-6.377 0.262-0.588 0.275-1.257 0.037-1.855-0.239-0.598-0.708-1.075-1.303-1.322-3.347-1.39-5.355-4.866-4.884-8.454 0.531-4.04 3.993-6.99 7.962-6.99 0.348 0 0.699 0.023 1.053 0.069 3.675 0.483 6.53 3.441 6.943 7.194 0.624 5.673 5.471 9.339 12.349 9.339 1.679 0 3.335-0.333 4.88-0.973 2.016 2.708 3.109 5.975 3.109 9.369C72.697 55.329 68.39 59.636 63.096 59.636zM44.167 28.995c-1.64 0-2.97 1.33-2.97 2.97 0 1.64 1.33 2.97 2.97 2.97s2.97-1.33 2.97-2.97C47.137 30.324 45.807 28.995 44.167 28.995z" fill="#f98e54" data-fill-palette-color="accent"></path></svg></g></svg></g></svg></g><defs></defs></svg><rect width="395.52" height="58.86066670116408" fill="none" stroke="none" visibility="hidden"></rect></g></svg></g></svg>